<svg version="1.2" baseProfile="tiny-ps" xmlns="http://www.w3.org/2000/svg" viewBox="0 0 212 189" width="212" height="189">
	<title>Path 22</title>
	<style>
		tspan { white-space:pre }
		.shp0 { fill: #1a316b } 
	</style>
	<path id="Path 22" fill-rule="evenodd" class="shp0" d="M73.69 110.9L74.49 111.31L74.42 111.31C74.96 111.64 75.43 112 75.94 112.38L75.9 112.38C76.48 112.9 76.94 113.38 77.45 113.97L77.44 113.97C77.85 114.49 78.2 114.99 78.56 115.55L78.56 115.55L78.88 116.07L78.87 116.07L79.16 116.6L79.16 116.6L79.43 117.12L79.42 117.12L79.68 117.64L79.67 117.64L79.91 118.17L79.9 118.17L80.13 118.69L80.12 118.69L80.33 119.21L80.32 119.21C80.57 119.91 80.8 120.59 81.02 121.3L81.01 121.3C81.24 122.08 81.44 122.86 81.64 123.64L81.63 123.64L81.77 124.2C79.96 122.16 78.8 121.01 76.31 119.89C72.69 118.36 69.32 118.97 65.61 118.18L63.63 117.75L64.18 117.75C63.08 117.29 62.41 116.84 61.47 116.13L61.51 116.13C60.79 115.48 60.29 114.8 59.73 114.02L59.74 114.02C59.2 113.16 58.78 112.31 58.36 111.4L58.37 111.4L58.15 110.87L58.16 110.87C57.88 110.18 57.66 109.49 57.43 108.78L57.43 108.78L57.3 108.34C52.4 102.89 48.87 97.09 45.91 90.4L45.92 90.4C45.62 89.69 45.31 88.96 45.05 88.23C44.98 88.04 45.39 87.96 44.88 87.96L44.88 87.74C44.35 86.43 43.93 85.05 43.5 83.71L43.51 83.71C43.26 82.92 43.04 82.08 42.83 81.28C41.44 75.83 40.82 70.26 40.81 64.65C40.84 62.41 41.08 60.31 41.16 58.12L41.18 58.12C41.77 52.79 43 47.2 44.97 42.21C45.03 42.05 45.1 41.89 45.14 41.75L45.13 41.75L45.88 39.91C47.36 36.5 48.87 33.59 50.84 30.43L50.84 30.43C51.4 29.55 51.96 28.72 52.55 27.86L52.54 27.86C53.44 26.62 54.3 25.47 55.26 24.28L55.25 24.28C55.44 24.05 55.64 23.82 55.82 23.59L55.83 23.59C56.37 22.95 56.89 22.34 57.44 21.72L57.43 21.72C58.08 21.02 58.7 20.36 59.36 19.67L59.36 19.67C61.54 17.5 63.81 15.44 66.27 13.57L66.25 13.57C66.71 13.23 67.16 12.88 67.62 12.55L67.61 12.55C68.09 12.21 68.57 11.87 69.06 11.54L69.05 11.54C69.82 11.02 70.59 10.52 71.38 10.02L71.36 10.02C71.92 9.68 72.48 9.34 73.04 9.02L73.02 9.02L73.92 8.51L73.9 8.51C74.52 8.17 75.15 7.83 75.77 7.51L75.74 7.51L76.76 7.01L76.73 7.01C78.21 6.3 79.65 5.64 81.16 5.01L81.11 5.01L82.41 4.51L82.35 4.51L83.73 4.02L83.69 4.02L85.15 3.53L85.1 3.53L86.68 3.04L86.62 3.04C89.52 2.22 92.3 1.52 95.28 1.04L94.99 1.03L97.66 0.7C106.36 -0.38 115.24 0.3 123.67 2.72L125.15 3.14L125.07 3.14C127.99 4.05 130.7 5.15 133.48 6.42L133.46 6.42L134.6 6.96L134.56 6.96C135.92 7.65 137.23 8.35 138.55 9.1L138.53 9.1C139.41 9.63 140.28 10.16 141.14 10.71L141.12 10.71C141.66 11.06 142.2 11.42 142.73 11.78L142.71 11.78L143.48 12.31L143.47 12.31C143.96 12.66 144.44 13.02 144.92 13.37L144.91 13.37L146.29 14.44L146.27 14.44C146.71 14.79 147.15 15.14 147.58 15.5L147.56 15.5C149.16 16.88 150.63 18.23 152.13 19.73L152.12 19.73L153.15 20.79L153.13 20.79C153.79 21.5 154.4 22.18 155.03 22.9L155.02 22.9C156.04 24.11 157.02 25.32 157.97 26.59L157.96 26.59C158.6 27.46 159.2 28.32 159.81 29.22L159.8 29.22C160.93 30.94 161.95 32.67 162.95 34.47L162.95 34.47C163.96 36.38 164.83 38.23 165.69 40.23L165.68 40.23C169.02 48.4 170.51 56.1 170.62 64.9C170.56 73.96 169 82.02 165.49 90.42L165.49 90.42L165.04 91.45L165.05 91.45C164.48 92.68 163.92 93.86 163.3 95.06L163.31 95.06L162.75 96.09L162.76 96.09L162.18 97.12L162.19 97.12C159.77 101.22 157.28 104.83 154.08 108.39L154.09 108.39L153.14 109.42L153.16 109.42C152.49 110.1 151.84 110.79 151.15 111.46L151.16 111.46L150.63 111.97L150.64 111.97C149.89 112.66 149.17 113.34 148.4 114.01L148.41 114.01L147.82 114.51L147.82 114.51C147.42 114.86 147.01 115.2 146.59 115.53L146.6 115.53L144.65 117.05L144.66 117.05C143.95 117.57 143.25 118.08 142.53 118.57L142.56 118.57L141.79 119.08L141.8 119.08C141.01 119.6 140.22 120.1 139.42 120.59L139.45 120.59L138.58 121.1L138.59 121.1C137.36 121.8 136.14 122.46 134.89 123.11L134.93 123.11L133.87 123.61L133.91 123.61L132.81 124.11L132.85 124.11L131.7 124.61L131.75 124.61L130.53 125.11L130.58 125.11L129.3 125.6L129.33 125.6C127.77 126.18 126.24 126.72 124.65 127.21C123.63 127.49 122.05 127.67 120.98 127.73C118.46 127.89 116.01 127.66 113.62 126.8L112.46 126.39L112.6 126.39C111.37 125.81 110.47 125.12 109.45 124.24L109.49 124.24C107.7 122.4 106.88 120.55 106.57 118.01L106.56 118.01C106.53 117.52 106.51 117.06 106.52 116.56C106.54 116.16 106.6 115.76 106.6 115.36L106.62 115.36C106.7 114.77 106.8 114.19 106.95 113.61C107.04 113.32 107.12 113.07 107.18 112.77L107.21 112.77C107.44 112.12 107.71 111.5 108.03 110.89L108.01 110.89C108.74 109.71 109.36 108.8 110.36 107.82C111.23 106.97 112.15 106.31 113.13 105.59C111.07 108.38 109.12 111.14 108.43 114.6C107.37 120.07 110.66 123.54 115.6 124.61C121.72 125.93 128.73 123.51 134 120.33C138.26 117.74 142.1 114.29 145.3 110.51L145.29 110.51C147.63 107.88 149.76 104.56 151.42 101.47C152.85 98.71 153.89 96.15 154.89 93.2C154.99 92.9 155.07 92.63 155.14 92.33L155.16 92.33C155.69 90.53 156.09 88.77 156.45 86.93C156.5 86.65 156.54 86.4 156.57 86.12L156.58 86.12C157.79 78.64 157.35 71.15 155.27 63.89L155.26 63.89C155.02 62.97 154.7 62.01 154.37 61.11C152.83 60.72 151.52 60.47 149.9 60.46C150.99 60.55 151.9 60.79 152.95 61.07C151.83 61.35 150.88 61.62 149.81 62.09C147.99 62.89 146.26 63.91 144.37 64.59L144.75 64.59C143.01 65 141.58 65.43 139.74 65.24C138.23 65.07 137.13 64.57 135.78 63.96L135.87 63.96C135.27 63.63 134.71 63.26 134.14 62.89L134.18 62.89C133.45 62.34 132.91 61.9 132.22 61.29L132.22 61.29C131.92 61.01 131.48 60.65 131.23 60.33L131.22 60.33L130.32 59.99L130.88 59.99L130.22 59.31C132.06 59.92 133.46 60.33 135.48 60.14C138.19 59.88 140.05 58.57 142.42 57.5L142.3 57.5C143.13 57.19 143.93 56.86 144.81 56.68L144.34 56.61L145.37 56.59C145.98 56.52 146.59 56.52 147.21 56.62L149.88 57.05L148.78 57.05C149.55 57.34 150.21 57.73 150.91 58.13L150.87 58.13C151.61 58.63 152.27 59.16 152.95 59.73L152.94 59.73C153.42 60.16 153.89 60.6 154.35 61.05C153.23 57.98 151.89 55.21 150.19 52.43L150.18 52.43C150.04 52.17 149.89 51.93 149.73 51.68C149.05 50.64 148.35 49.67 147.65 48.65C147.54 48.48 147.32 48.19 147.17 48C141.71 40.97 135.22 35.3 127.17 31.45C120.35 28.24 112.56 26.74 105.19 29.01C109.52 28.23 113.79 27.77 118.06 29.19L119.04 29.34L118.73 29.42L118.81 29.44C118.02 29.61 117.24 29.77 116.47 29.99C114.65 30.56 113.01 31.24 111.27 32.01C110.24 32.46 109.21 32.91 108.16 33.31L108.25 33.31C107.08 33.71 105.93 34.11 104.72 34.37L106.56 34.45L102.36 34.7C98.95 34.91 96.25 33.83 93.32 32.05L93.34 32.05C92.82 31.71 92.33 31.35 91.83 30.98L91.85 30.98L91.16 30.45L91.18 30.45C89.97 29.44 88.92 28.4 87.82 27.28L87.84 27.28C87.52 26.93 87.18 26.59 86.88 26.23L86.14 25.96L86.66 25.96L86.33 25.57L87.76 26.09C91.4 27.34 94.78 27.28 98.39 25.96C99.13 25.7 99.85 25.39 100.57 25.08L100.56 25.08L101.7 24.58L101.67 24.58L102.82 24.08L102.77 24.08L103.99 23.59L103.9 23.59L105.31 23.1L104.89 23.1C107.18 22.6 108.88 22.13 111.3 22.66C113.1 23.06 114.43 23.83 115.95 24.8L115.93 24.8C117.25 25.72 118.48 26.79 119.62 27.92C120.94 28.26 122.22 28.6 123.52 29.03C124.6 29.39 125.67 29.79 126.73 30.18L126.67 30.18C128.29 30.83 129.83 31.56 131.39 32.35L131.37 32.35C132.34 32.86 133.28 33.4 134.24 33.95L134.22 33.95L135.1 34.49L135.09 34.49L135.93 35.04L135.92 35.04C138.79 36.95 141.48 39.12 143.92 41.56L144.81 42.45L144.8 42.45C145.63 43.28 146.4 44.2 147.16 45.09L147.15 45.09C147.73 45.79 148.27 46.49 148.83 47.2L148.82 47.2L149.21 47.73L149.21 47.73C149.58 48.25 149.95 48.78 150.32 49.3L150.31 49.3C150.55 49.65 152.58 52.98 152.57 52.98C153.14 54.06 153.66 55.03 154.19 56.12L154.19 56.12C154.43 56.65 154.67 57.17 154.9 57.69L154.9 57.69L155.48 59.09L155.49 59.09C155.67 59.67 155.93 60.27 156.14 60.83C156.68 62.42 157.15 63.96 157.58 65.6L157.59 65.6C158.21 68.76 158.9 71.68 159.03 74.95C159.03 75.2 159.08 75.46 159.08 75.72C159.37 82.57 158.41 89.53 155.99 95.97L156 95.97C155.26 97.91 154.48 99.78 153.53 101.64L153.55 101.64C153.33 102.03 153.1 102.43 152.92 102.84L152.9 102.84C152.46 103.65 152.01 104.45 151.52 105.24L151.53 105.24C151.21 105.75 150.88 106.27 150.55 106.78C150.55 106.78 149.01 108.97 148.76 109.3C147.34 111.17 145.75 113.07 144.07 114.72C146.61 112.85 148.91 110.67 151.13 108.44C151.3 108.27 151.48 108.09 151.63 107.92C158.87 99.96 165.45 88.76 167.08 78L167.09 78C167.4 76.57 167.71 74.79 167.85 73.34L167.85 73.34C168.07 71.49 168.32 69.44 168.32 67.59C168.43 62.77 168.17 57.99 167.25 53.25L167.25 53.25C167.14 52.57 166.98 51.82 166.83 51.16L166.82 51.16C166.72 50.59 166.56 50.01 166.43 49.44C164.63 42.51 162.03 36.09 158.11 30.07L158.12 30.07C147.63 13.91 131.28 4.38 112.1 2.68C104.4 1.98 96.84 2.55 89.37 4.55L88.06 4.91L88.09 4.91C76.63 8.34 66.47 14.7 58.6 23.72C58.48 23.86 58.34 24.02 58.22 24.14L58.23 24.14C48.15 36.02 43.01 49.96 43 65.63C43.03 67.39 43.13 69.08 43.2 70.83C43.2 70.99 43.23 71.3 43.26 71.56C43.39 73.04 43.64 74.56 43.76 76.01C43.87 76.96 44.08 77.99 44.25 78.94L44.26 78.94C44.37 79.7 44.55 80.46 44.72 81.21C44.77 81.57 44.87 81.94 44.97 82.31C45.24 83.36 45.51 84.41 45.81 85.45L45.82 85.45C46.37 87.68 48.22 92.22 49.1 94.22C49.42 95.03 49.93 95.92 50.33 96.7L50.34 96.7C50.53 97.13 50.78 97.56 51 97.97C53.06 101.65 55.55 105.29 58.37 108.45C59.11 109.07 59.81 109.64 60.61 110.16C61.27 110.58 61.92 110.94 62.6 111.3C60.88 110.27 59.93 109.39 58.59 108.02L59.39 108.26C63.5 109.49 69.93 108.99 73.69 110.9ZM72.37 37.64C74.36 37.89 76.27 38.27 78.23 38.65L78.01 38.65C79.35 38.98 80.65 39.37 81.97 39.77L81.89 39.77C82.85 40.11 83.78 40.48 84.72 40.87L84.67 40.87C86.08 41.5 87.34 42.21 88.66 43.02L88.64 43.02L89.45 43.55L89.43 43.55L90.17 44.08L90.15 44.08L90.86 44.62L90.83 44.62L91.48 45.15L91.46 45.15L92.07 45.68L92.05 45.68C93.76 47.3 95.15 49.04 96.56 50.9C97.27 51.88 98.18 53.05 99.14 53.77C99.88 54.31 101.63 55.42 103.21 56.3C103.94 56.71 105.07 57.37 105.88 57.55C108.58 57.75 111.32 57.92 114.02 57.89C115.96 57.87 118.57 57.3 119.71 59.35L119.88 59.67L119.85 59.67L119.86 59.72L121.71 59.89L119.92 59.89L119.96 60.02L119.97 60.02C120.02 60.46 120.06 60.8 120.06 61.24L120.05 61.24C119.91 63.8 117.64 66.33 120.16 68.46C120.88 69.08 121.92 69.59 122.75 70.1L122.61 70.1C123.27 70.72 123.47 71.31 123.49 72.2L123.48 72.2C123.44 72.77 123.32 73.14 123.08 73.67C124.38 74.74 125.27 75.58 126.22 76.92L126.2 76.92C126.4 77.29 126.53 77.57 126.68 77.97L126.67 77.97C126.79 78.51 126.82 78.79 126.67 79.35L126.7 79.35C126.49 79.78 126.37 80.03 126.03 80.38L126.12 80.38L125.76 80.63C126.48 81.34 127.21 82.05 127.99 82.71C129.21 83.77 130.49 84.8 131.66 85.92C132.68 86.89 133.32 87.69 133.75 89L133.75 89L133.8 89.35L133.81 89.35C133.85 89.8 133.84 90.1 133.78 90.56L133.77 90.56L133.71 90.84L133.71 90.84C133.6 91.28 133.38 91.71 133.17 92.11L133.16 92.11C132.76 92.8 132.29 93.39 131.75 93.98L131.77 93.98C131.06 94.7 130.37 95.36 129.6 96.02L129.61 96.02C128 97.31 126.39 98.5 124.62 99.56L124.64 99.56C123.13 100.44 121.67 101.27 120.12 102.08L120.14 102.08C115.9 104.16 111.46 106.08 106.95 107.51C106.16 107.77 105.57 108.03 104.7 108.01C102.03 109.14 98.59 109.03 95.79 108.6C93.86 108.3 92.08 107.8 90.21 107.27L90.37 107.27C88.72 106.72 87.11 106.03 85.58 105.19C84.73 104.68 83.84 104.19 82.98 103.7L85.98 104.87C92.71 107.46 100.07 108.49 106.82 105.4C107.45 105.1 108.07 104.88 108.71 104.63C109.49 104.34 110.25 104.02 111.02 103.7C111.31 103.58 111.93 103.68 111.93 103.47L111.93 103.32C113.82 102.56 115.71 101.7 117.56 100.84C122.01 98.71 126.2 96.47 130.18 93.56C130.85 93.01 131.77 92.22 132.04 91.4L132.06 91.4C132.7 89.86 132.06 88.42 131.02 87.23L131.07 87.23C129.33 84.93 126.9 83.45 125.47 80.82C122.68 82.67 116.48 82.87 113.1 82.93L111.4 84.47L112.73 82.94L112.34 82.95C113.47 81.26 114.28 79.85 114.79 77.83C115.18 76.26 115.26 74.68 115.57 73.11C115.93 71.58 116.73 70.69 118.16 69.98C117.73 69.63 117.42 69.24 117.13 68.78C117.11 68.75 116.91 68.36 116.9 68.36C116.65 67.73 116.6 67.41 116.5 66.72L116.51 66.72C116.42 65.02 117.04 63.34 117.74 61.81C118.1 61.02 118.35 60.03 117.11 59.89C116.67 59.85 116.21 59.9 115.77 59.88C114.6 59.86 112.92 59.59 111.14 59.23C109.25 58.85 107.26 58.37 105.66 57.96C105.3 57.91 104.87 57.78 104.53 57.67L103.49 57.38L103.5 57.37C96.85 55.38 93.92 51.96 93.13 51.05C93.02 50.92 93.24 50.9 92.98 50.9C91.88 49.53 90.51 48.15 89.22 46.96C85.29 43.35 81.67 41.41 76.48 39.93C69.13 37.88 60.85 37.7 53.26 37.99C52.76 38.09 50.64 38.12 50.04 38.15L50.01 37.72L51.05 37.62L50.61 37.6C55.22 37.29 59.74 36.98 64.37 37.08C67.31 37.14 69.97 37.33 72.37 37.64ZM143.08 25.81L142.59 25.09C145.78 26.8 149.43 29.02 150.43 32.76L150.44 32.76C151.01 35.21 150.67 36.99 150.24 39.36C150.11 40.04 149.97 40.78 149.91 41.46L149.9 41.46C149.77 42.46 149.78 43.37 149.81 44.37C149.54 43.92 149.28 43.51 149.03 43.06L149.03 43.06L148.94 42.89L148.95 42.89C148.87 42.72 148.78 42.54 148.71 42.37C149.11 43.59 149.62 44.51 150.25 45.62C149.58 45.23 148.94 44.85 148.28 44.44L148.31 44.44L147.53 43.91L147.56 43.91C146.62 43.18 146.07 42.65 145.29 41.79L145.32 41.79C145.07 41.45 144.84 41.09 144.61 40.74L144.64 40.74C144.49 40.44 144.38 40.17 144.27 39.86L144.26 39.86L144.13 39.34L144.12 39.34L144.07 39.09L144.06 39.09L144 38.67L143.99 38.67C143.93 37.92 143.95 37.31 144.02 36.57L144.03 36.57L144.06 36.24L144.07 36.24C144.31 34.7 144.78 32.95 144.78 31.39L144.79 31.39C144.79 30.83 144.79 30.39 144.69 29.83L144.7 29.83C144.44 28.24 143.94 27.16 143.08 25.81ZM56.5 39.69C55.05 43.85 53.81 48.23 54.11 52.68C54.66 58.2 57.42 60.55 61.79 62.79L61.78 62.79C64.17 64 66.7 64.91 69.08 66.16L69.84 66.57L69.81 66.57L71.52 67.64L71.5 67.64C71.96 67.98 72.39 68.34 72.84 68.71L72.81 68.71C73.62 69.48 74.28 70.2 74.86 71.17L74.87 71.17C75.2 71.75 75.46 72.31 75.73 72.92L75.72 72.92L75.92 73.44L75.91 73.44L76.02 73.79L76.03 73.79L76.33 75L76.32 75C76.42 75.54 76.49 76.02 76.55 76.57L76.54 76.57C76.66 78.05 76.56 78.7 76.09 80.1C75.57 81.42 74.97 82.53 74.24 83.74C75.54 84.05 76.77 84.46 78.04 84.88L77.9 84.88C79.06 85.33 80.01 85.87 81.07 86.5L81.03 86.5L81.78 87.04L81.74 87.04L82.38 87.57L82.34 87.57C83.7 88.87 84.37 90.25 84.59 92.12L84.6 92.12C84.63 92.72 84.61 93.24 84.56 93.84L84.56 93.84C84.49 94.32 84.4 94.76 84.29 95.22L84.3 95.22L84.24 95.42L84.24 95.42C83.97 96.25 83.71 97.02 83.33 97.8L83.34 97.8L83.08 98.32L83.09 98.32L82.96 98.55L83.01 98.51L82.12 100.02L81.98 99.94L81.98 100.03L81.63 100.03C82.11 99.07 82.6 98.17 82.96 97.14C85.57 89.68 78.95 87.28 72.74 86.37L72.64 86.36C70.65 89.63 68.9 93.26 71.26 96.77C71.41 96.98 71.57 97.24 71.73 97.41C72.26 97.98 72.73 98.56 73.28 99.13C75.93 101.76 78.29 103.07 81.76 104.84C83.96 105.97 86.01 107.1 87.56 109.13L87.83 109.48L87.82 109.48L88.48 110.53L88.47 110.53C88.93 111.4 89.25 112.22 89.57 113.14L89.56 113.14C89.71 113.61 89.83 114.07 89.94 114.54L89.95 114.54C90.23 115.89 90.39 116.99 90.55 118.36L90.54 118.36L90.57 118.7L90.58 118.7C90.74 121.03 90.77 123.24 90.81 125.59C90.34 122.58 89.92 119.55 89.18 116.59L89.18 116.59C89.02 115.88 88.79 115.19 88.59 114.5C88.5 114.23 88.87 114.17 88.48 114.17C87.65 111.88 86.93 110.55 85.03 109.07C83.85 108.18 82.54 107.63 81.2 107.03C78.11 105.65 74.98 104.23 72.28 102.16L71.78 101.77L71.8 101.77C71.03 101.14 70.32 100.47 69.69 99.7L69.68 99.7C69.51 99.47 69.35 99.28 69.16 99.07C68.2 98.03 67.77 97.26 67.12 95.97L67.14 95.97C67.07 95.77 66.99 95.57 66.93 95.37L66.93 95.37C66.88 95.26 66.85 95.12 66.82 95L66.81 95L66.67 94.4L66.68 94.4C66.62 94.1 66.59 93.84 66.56 93.53L66.55 93.53L66.53 93.01L66.52 93.01C66.52 90.72 66.98 89.23 67.66 87.15L67.67 87.15L68.13 85.92C66.59 85.84 65.03 85.78 63.5 85.58C62.07 85.4 60.66 85.18 59.24 84.97L59.83 84.97L57.46 84.4L57.67 84.4C55.9 83.85 54.55 83.18 52.98 82.23L53.02 82.23C52.3 81.72 51.19 80.89 50.67 80.18L50.65 80.19C50.36 79.89 50.12 79.55 49.86 79.22L49.85 79.22L49.73 79.05L49.75 79.05C49.51 78.7 49.29 78.36 49.07 78L49.08 78L48.53 76.95L48.55 76.95L48.32 76.43L48.33 76.43C48.05 75.73 47.85 75.06 47.66 74.34L47.67 74.34L47.55 73.81L47.55 73.81L47.45 73.29L47.46 73.29C47.13 71.44 47.15 69.54 47.11 67.66C47.17 67.95 47.76 70.67 47.8 70.69C48.36 73.32 49.66 76.54 51.53 78.53C53.91 81.09 57.19 81.75 60.58 82.11C63.54 82.41 66.49 82.5 69.45 82.88C70.05 81.56 70.75 80.23 71.3 78.9L71.31 78.9C74.21 72.72 70.04 70.02 65.02 67.36C63.12 66.35 61.34 65.34 59.53 64.17L59.55 64.17C58.82 63.65 58.16 63.14 57.47 62.57L57.48 62.57L56.9 62.04L56.91 62.04C56.68 61.82 56.46 61.59 56.24 61.36L56.34 62.4C56.44 63.02 56.79 63.91 57.01 64.48C57.36 65.37 57.68 66.27 57.74 67.24L57.74 67.24C57.75 69 57.13 70.06 55.92 71.35L55.95 71.35L53.98 73.06C54.55 71.72 54.91 70.95 54.73 69.51C54.55 68.3 53.93 67.24 53.62 66.06L53.61 66.06L53.57 65.78L53.56 65.78L53.54 65.59L53.53 65.59L53.5 65.09L53.51 65.09L53.54 64.75L53.53 64.75C53.6 64.35 53.68 64.08 53.83 63.71L53.81 63.71L54.1 63.2L54.08 63.2C54.73 62.3 55.2 61.84 56.01 61.1C55.23 60.2 54.69 59.39 54.15 58.35L54.16 58.35C53.81 57.67 53.57 56.99 53.33 56.26L53.34 56.26L53.25 55.91L53.24 55.91C53.12 55.38 53.01 54.89 52.94 54.35L52.93 54.35C52.75 52.93 52.7 50.24 53.06 48.94C53.45 46.46 54.22 44.1 55.12 41.75L55.12 41.75C55.48 40.85 55.86 39.96 56.25 39.08L56.68 39.17L56.5 39.69ZM59.67 94.1C60.39 93.03 60.52 92.27 60.75 90.98C60.99 91.81 61.2 92.6 61.39 93.44L61.38 93.44C61.42 93.63 61.45 93.83 61.48 94.03L61.48 94.03C61.54 94.76 61.56 95.31 61.51 96.04L61.5 96.04L61.29 97.07L61.28 97.07C61.17 97.39 61.06 97.63 60.91 97.93L60.94 97.93C60.68 98.29 60.46 98.61 60.16 98.95L60.21 98.95C59.88 99.25 58.75 100.03 58.64 100.24C57.72 100.86 56.72 101.49 55.95 102.28L55.21 103.69C53.01 94.63 56.29 98.51 59.67 94.1ZM70.72 41.51L71.37 40.78C71.18 41.52 70.98 42.26 70.79 43.01L70.78 43.01C70.62 43.55 70.44 44.07 70.24 44.6L70.25 44.6C69.78 45.68 69.43 46.39 68.83 47.35L68.82 47.35C68.47 47.84 68.1 48.29 67.67 48.71L67.71 48.71L67.1 49.22L67.15 49.22C65.83 50.08 65 50.53 63.34 50.86C61 51.32 58.43 51.1 56.19 51.8L55.36 52.06C55.86 51.55 56.3 51.09 56.86 50.63C55.89 51.31 55.16 51.98 54.32 52.8C54.49 52.3 54.63 51.76 54.81 51.27L54.8 51.27L54.98 50.75L54.97 50.75C55.24 50.05 55.49 49.36 55.84 48.69L55.84 48.69C56.27 47.91 56.67 47.28 57.29 46.64L57.25 46.64L57.71 46.26C61.41 43.18 66.07 46.61 70.72 41.51ZM122.86 74.09C122.53 74.67 122.18 75.11 121.77 75.63L121.78 75.63C121.31 76.15 120.84 76.66 120.33 77.15C118.61 78.79 116.65 80.25 114.71 81.61C116.98 81.43 122.33 80.9 123.95 78.82C125.17 77.26 123.92 75.35 122.86 74.09ZM121.64 72.67L121.19 72.15L121.68 72.55C121.85 71.85 121.06 71.56 120.53 71.33C119.81 71 119.19 70.7 118.53 70.26C117.6 71.08 117.29 72.2 117.12 73.39C116.87 75.22 116.73 76.88 116.13 78.65L116.13 78.65C115.92 79.18 115.69 79.75 115.39 80.24C116.9 78.78 118.25 77.33 119.58 75.72C119.82 75.43 120.27 74.89 120.43 74.58L120.45 74.58C120.81 74.08 121.42 73.27 121.64 72.67ZM58.5 138.85L58.5 156.44C58.5 156.83 58.38 157.14 58.14 157.38C57.89 157.63 57.58 157.75 57.19 157.75C56.81 157.75 56.49 157.63 56.25 157.39C56.01 157.15 55.89 156.83 55.89 156.44L55.89 142.66L44.57 157.21C44.44 157.37 44.3 157.49 44.15 157.57C43.94 157.69 43.73 157.75 43.52 157.75C43.14 157.75 42.82 157.63 42.58 157.4C42.33 157.15 42.2 156.83 42.2 156.44L42.2 138.85C42.2 138.46 42.32 138.15 42.56 137.91C42.81 137.66 43.12 137.54 43.5 137.54C43.89 137.54 44.21 137.66 44.45 137.9C44.69 138.15 44.81 138.46 44.81 138.85L44.81 152.66L56.12 138.12C56.25 137.95 56.39 137.82 56.54 137.73C56.74 137.6 56.96 137.54 57.19 137.54C57.57 137.54 57.89 137.66 58.13 137.9C58.38 138.15 58.5 138.46 58.5 138.85ZM75.52 156.44C75.52 156.83 75.39 157.15 75.15 157.39C74.91 157.63 74.6 157.75 74.21 157.75C73.83 157.75 73.51 157.63 73.27 157.39C73.03 157.14 72.91 156.83 72.91 156.44L72.91 148.97L63.8 148.97L63.8 156.44C63.8 156.83 63.67 157.14 63.43 157.38C63.19 157.63 62.87 157.75 62.49 157.75C62.11 157.75 61.79 157.63 61.55 157.39C61.31 157.14 61.19 156.83 61.19 156.44L61.19 138.85C61.19 137.98 61.62 137.54 62.49 137.54C62.88 137.54 63.19 137.66 63.43 137.9C63.67 138.15 63.8 138.46 63.8 138.85L63.8 146.33L72.91 146.33L72.91 138.85C72.91 137.98 73.34 137.54 74.21 137.54C74.6 137.54 74.91 137.66 75.15 137.9C75.39 138.15 75.52 138.46 75.52 138.85L75.52 156.44ZM94.53 153.88C94.53 154.05 94.5 154.22 94.42 154.39C94.35 154.54 94.26 154.67 94.14 154.79C93.2 155.77 92.13 156.51 90.93 157.01C89.74 157.5 88.43 157.75 87 157.75C85.61 157.75 84.32 157.5 83.12 157.01C81.93 156.51 80.84 155.77 79.86 154.79C78.88 153.81 78.14 152.72 77.65 151.52C77.15 150.33 76.9 149.03 76.9 147.65C76.9 146.26 77.15 144.97 77.65 143.77C78.14 142.57 78.88 141.48 79.86 140.5C80.84 139.52 81.93 138.78 83.12 138.29C84.32 137.79 85.61 137.54 87 137.54C88.43 137.54 89.74 137.79 90.93 138.29C92.13 138.78 93.2 139.52 94.14 140.51C94.26 140.62 94.35 140.75 94.42 140.9C94.5 141.07 94.53 141.25 94.53 141.42C94.53 141.81 94.41 142.13 94.17 142.38C93.92 142.62 93.6 142.74 93.21 142.74C93.05 142.74 92.88 142.71 92.72 142.64C92.59 142.58 92.47 142.5 92.34 142.4C91.46 141.65 90.57 141.09 89.68 140.72C88.8 140.36 87.91 140.18 87 140.18C85.96 140.18 85 140.36 84.12 140.73C83.25 141.09 82.44 141.64 81.7 142.37C80.97 143.1 80.42 143.9 80.05 144.78C79.69 145.65 79.51 146.61 79.51 147.65C79.51 148.68 79.69 149.64 80.05 150.51C80.42 151.39 80.97 152.19 81.7 152.92C82.44 153.65 83.24 154.2 84.12 154.57C85 154.93 85.96 155.11 87 155.11C87.91 155.11 88.8 154.93 89.68 154.57C90.57 154.21 91.46 153.65 92.34 152.9C92.46 152.81 92.58 152.73 92.7 152.67C92.87 152.59 93.05 152.56 93.21 152.56C94.09 152.56 94.53 153 94.53 153.88ZM108.97 138.86C108.97 139.24 108.85 139.56 108.62 139.8L108.61 139.81C108.37 140.06 108.05 140.18 107.66 140.18L103.1 140.18L103.1 156.44C103.1 156.83 102.97 157.15 102.73 157.39C102.49 157.63 102.17 157.75 101.79 157.75C101.41 157.75 101.09 157.63 100.85 157.39C100.61 157.14 100.49 156.83 100.49 156.44L100.49 140.18L95.92 140.18C95.53 140.18 95.21 140.06 94.97 139.81C94.73 139.56 94.61 139.25 94.61 138.86C94.61 138.48 94.73 138.16 94.97 137.92C95.21 137.67 95.53 137.54 95.92 137.54L107.67 137.54C108.06 137.54 108.38 137.67 108.62 137.92C108.85 138.17 108.97 138.48 108.97 138.86ZM125.97 138.85L125.97 156.44C125.97 156.83 125.85 157.15 125.61 157.39C125.37 157.63 125.06 157.75 124.67 157.75C124.28 157.75 123.97 157.63 123.73 157.39C123.49 157.15 123.36 156.83 123.36 156.44L123.36 142.66L112.05 157.21C111.92 157.37 111.77 157.49 111.62 157.57C111.42 157.69 111.21 157.75 110.99 157.75C110.61 157.75 110.3 157.63 110.05 157.4C109.8 157.15 109.67 156.83 109.67 156.44L109.67 138.85C109.67 138.46 109.8 138.15 110.04 137.91C110.28 137.66 110.6 137.54 110.98 137.54C111.36 137.54 111.68 137.66 111.92 137.9C112.16 138.15 112.28 138.46 112.28 138.85L112.28 152.66L123.59 138.12C123.72 137.96 123.86 137.82 124.01 137.73C124.22 137.6 124.44 137.54 124.66 137.54C125.05 137.54 125.37 137.66 125.61 137.9C125.85 138.15 125.97 138.46 125.97 138.85ZM141.45 139.71L141.36 139.81C141.12 140.06 140.8 140.18 140.41 140.18L135.84 140.18L135.84 156.44C135.84 156.83 135.72 157.14 135.48 157.38C135.24 157.63 134.92 157.75 134.54 157.75C134.16 157.75 133.84 157.63 133.6 157.39C133.36 157.14 133.23 156.83 133.23 156.44L133.23 140.18L128.67 140.18C128.28 140.18 127.96 140.06 127.72 139.81L127.71 139.8C127.48 139.56 127.36 139.24 127.36 138.86C127.36 138.48 127.48 138.16 127.71 137.92C127.95 137.67 128.27 137.54 128.66 137.54L140.41 137.54C140.8 137.54 141.12 137.67 141.36 137.92L141.42 137.98L141.49 137.91C141.73 137.66 142.05 137.54 142.44 137.54C142.65 137.54 142.86 137.6 143.05 137.71C143.22 137.8 143.36 137.93 143.48 138.09L149.27 145.52L155.08 138.06C155.2 137.9 155.34 137.78 155.51 137.69C155.7 137.59 155.9 137.54 156.1 137.54C156.49 137.54 156.81 137.66 157.06 137.91L157.14 138L157.2 137.92C157.45 137.67 157.77 137.54 158.15 137.54L169.91 137.54C170.3 137.54 170.61 137.67 170.86 137.92C171.09 138.17 171.21 138.48 171.21 138.86C171.21 139.25 171.09 139.56 170.85 139.81C170.61 140.06 170.29 140.18 169.9 140.18L165.34 140.18L165.34 156.44C165.34 157.31 164.9 157.75 164.03 157.75C163.65 157.75 163.33 157.63 163.09 157.39C162.85 157.14 162.73 156.83 162.73 156.44L162.73 140.18L158.16 140.18C157.77 140.18 157.45 140.06 157.21 139.81L157.11 139.69L143.46 157.24C143.33 157.4 143.18 157.53 143.02 157.61C142.84 157.7 142.64 157.75 142.44 157.75C142.05 157.75 141.73 157.63 141.49 157.38C141.24 157.14 141.12 156.82 141.12 156.43C141.12 156.29 141.15 156.14 141.2 156L141.21 155.99C141.25 155.87 141.32 155.76 141.39 155.66L147.62 147.64L141.45 139.71ZM12.7 169.14C12.7 169.32 12.66 169.49 12.58 169.66C12.51 169.81 12.42 169.94 12.3 170.05L4.43 177.93L12.3 185.8C12.42 185.91 12.51 186.04 12.58 186.18L12.58 186.2C12.66 186.36 12.7 186.54 12.7 186.72C12.7 187.11 12.57 187.43 12.32 187.67C12.08 187.91 11.76 188.03 11.38 188.03C11.21 188.03 11.04 187.99 10.87 187.92C10.72 187.85 10.58 187.76 10.46 187.64L2.97 180.15L2.97 186.72C2.97 187.11 2.85 187.42 2.61 187.66C2.37 187.91 2.05 188.03 1.67 188.03C1.29 188.03 0.97 187.91 0.73 187.67C0.49 187.42 0.36 187.11 0.36 186.72L0.36 169.13C0.36 168.74 0.49 168.42 0.73 168.18C0.97 167.94 1.28 167.82 1.67 167.82C2.06 167.82 2.37 167.94 2.61 168.18C2.85 168.42 2.97 168.74 2.97 169.13L2.97 175.69L10.48 168.19C10.6 168.08 10.73 167.99 10.87 167.93C11.03 167.86 11.2 167.82 11.38 167.82C11.76 167.82 12.08 167.94 12.33 168.19C12.57 168.43 12.7 168.75 12.7 169.14ZM32.98 177.92C32.98 179.31 32.73 180.6 32.24 181.8C31.74 182.99 31 184.08 30.02 185.07C29.04 186.05 27.95 186.79 26.75 187.28C25.56 187.78 24.26 188.03 22.88 188.03C21.49 188.03 20.2 187.78 19 187.28C17.8 186.78 16.71 186.05 15.73 185.07C14.75 184.09 14.01 183 13.52 181.8C13.02 180.6 12.77 179.31 12.77 177.92C12.77 176.54 13.02 175.24 13.52 174.05C14.01 172.85 14.75 171.76 15.73 170.78C16.71 169.8 17.8 169.06 19 168.57C20.2 168.07 21.49 167.82 22.88 167.82C24.26 167.82 25.56 168.07 26.75 168.56C27.95 169.06 29.04 169.8 30.02 170.78C31 171.76 31.74 172.85 32.24 174.05C32.73 175.24 32.98 176.54 32.98 177.92ZM30.37 177.92C30.37 176.89 30.19 175.93 29.83 175.06C29.46 174.18 28.91 173.38 28.18 172.65C27.44 171.91 26.64 171.37 25.76 171C24.88 170.64 23.92 170.46 22.88 170.46C21.83 170.46 20.87 170.64 20 171C19.12 171.37 18.31 171.92 17.57 172.65C16.84 173.38 16.29 174.18 15.93 175.06C15.56 175.93 15.38 176.89 15.38 177.92C15.38 178.96 15.56 179.92 15.93 180.79C16.29 181.66 16.84 182.47 17.57 183.2C18.31 183.93 19.12 184.48 20 184.84C20.87 185.21 21.83 185.39 22.88 185.39C23.92 185.39 24.88 185.21 25.76 184.84C26.64 184.48 27.44 183.93 28.18 183.2C28.91 182.47 29.46 181.66 29.83 180.79C30.19 179.92 30.37 178.96 30.37 177.92ZM50.68 184.15C50.68 184.33 50.65 184.5 50.57 184.67C50.51 184.81 50.41 184.95 50.29 185.07C49.35 186.05 48.28 186.79 47.09 187.28C45.89 187.78 44.58 188.03 43.15 188.03C41.76 188.03 40.47 187.78 39.28 187.28C38.08 186.79 36.99 186.05 36.01 185.07C35.03 184.09 34.3 183 33.8 181.8C33.3 180.6 33.05 179.31 33.05 177.92C33.05 176.54 33.3 175.24 33.8 174.05C34.29 172.85 35.03 171.76 36.01 170.78C37 169.8 38.09 169.06 39.28 168.56C40.47 168.07 41.76 167.82 43.15 167.82C44.58 167.82 45.89 168.07 47.09 168.56C48.29 169.06 49.36 169.81 50.31 170.8C50.42 170.92 50.51 171.05 50.57 171.19C50.65 171.35 50.68 171.53 50.68 171.7C50.68 172.09 50.56 172.41 50.32 172.65C50.07 172.9 49.75 173.02 49.37 173.02C49.2 173.02 49.03 172.98 48.87 172.91C48.74 172.86 48.62 172.78 48.49 172.68C47.61 171.93 46.72 171.37 45.83 171C44.95 170.64 44.06 170.46 43.15 170.46C42.11 170.46 41.15 170.64 40.27 171C39.4 171.37 38.59 171.91 37.85 172.65C37.12 173.38 36.57 174.18 36.21 175.06C35.84 175.93 35.66 176.89 35.66 177.92C35.66 178.96 35.84 179.92 36.21 180.79C36.57 181.66 37.12 182.47 37.85 183.2C38.59 183.93 39.4 184.48 40.27 184.84C41.15 185.21 42.11 185.39 43.15 185.39C44.06 185.39 44.95 185.21 45.83 184.85C46.72 184.49 47.61 183.93 48.49 183.18C48.61 183.09 48.73 183.01 48.85 182.95C49.03 182.87 49.2 182.83 49.37 182.83C49.75 182.83 50.07 182.96 50.32 183.2C50.56 183.44 50.68 183.76 50.68 184.15ZM72.92 186.73C72.92 187.12 72.79 187.44 72.53 187.68C72.29 187.91 71.98 188.03 71.6 188.03C71.28 188.03 71.01 187.93 70.78 187.75C70.55 187.56 70.41 187.32 70.34 187L67.32 173.37L63.07 183.25C62.97 183.5 62.82 183.7 62.62 183.85C62.39 184.03 62.13 184.12 61.84 184.12C61.55 184.12 61.29 184.03 61.06 183.85C60.87 183.71 60.71 183.5 60.61 183.25L56.37 173.36L53.34 187C53.27 187.31 53.13 187.56 52.9 187.75C52.67 187.93 52.4 188.03 52.08 188.03C51.7 188.03 51.39 187.91 51.15 187.68C50.89 187.44 50.76 187.12 50.76 186.73C51 182.77 53.7 173.38 54.69 168.94C54.76 168.62 54.89 168.36 55.1 168.16C55.34 167.93 55.64 167.82 55.99 167.82C56.29 167.82 56.55 167.92 56.78 168.11C56.96 168.26 57.1 168.45 57.21 168.7L61.84 179.52L66.47 168.72C66.57 168.47 66.72 168.26 66.91 168.1C67.14 167.92 67.4 167.82 67.71 167.82C68.05 167.82 68.34 167.93 68.58 168.16C68.78 168.34 68.92 168.59 68.99 168.9C69.87 174.01 72.62 182.09 72.92 186.73ZM86.68 186.71C86.68 187.09 86.56 187.4 86.33 187.65C86.08 187.9 85.76 188.03 85.37 188.03L75.6 188.03C75.22 188.03 74.9 187.91 74.66 187.66C74.42 187.42 74.3 187.11 74.3 186.72L74.3 169.13C74.3 168.25 74.73 167.82 75.6 167.82L85.37 167.82C85.76 167.82 86.08 167.95 86.33 168.2C86.56 168.44 86.68 168.76 86.68 169.14C86.68 169.52 86.56 169.84 86.33 170.08C86.08 170.33 85.76 170.46 85.37 170.46L76.91 170.46L76.91 176.6L83.41 176.6C83.8 176.6 84.12 176.73 84.36 176.98C84.6 177.23 84.72 177.54 84.72 177.92C84.72 178.31 84.6 178.62 84.36 178.87C84.12 179.12 83.8 179.24 83.41 179.24L76.91 179.24L76.91 185.39L85.37 185.39C85.76 185.39 86.08 185.51 86.33 185.77C86.56 186.01 86.68 186.32 86.68 186.71ZM101.12 169.14C101.12 169.52 101 169.84 100.76 170.08C100.52 170.33 100.2 170.46 99.81 170.46L95.24 170.46L95.24 186.72C95.24 187.11 95.12 187.42 94.88 187.66C94.63 187.91 94.32 188.03 93.94 188.03C93.55 188.03 93.24 187.91 93 187.67C92.75 187.42 92.63 187.11 92.63 186.72L92.63 170.46L88.06 170.46C87.67 170.46 87.36 170.33 87.11 170.08C86.87 169.84 86.76 169.52 86.76 169.14C86.76 168.76 86.87 168.44 87.11 168.2C87.36 167.95 87.67 167.82 88.06 167.82L99.81 167.82C100.2 167.82 100.52 167.95 100.76 168.2C101 168.44 101.12 168.76 101.12 169.14ZM120.72 177.92C120.72 179.31 120.48 180.6 119.98 181.8C119.48 183 118.74 184.09 117.76 185.07C116.79 186.05 115.7 186.78 114.5 187.28C113.3 187.78 112.01 188.03 110.62 188.03C109.23 188.03 107.94 187.78 106.74 187.28C105.55 186.79 104.46 186.05 103.48 185.07C102.5 184.09 101.76 183 101.26 181.8C100.77 180.6 100.52 179.31 100.52 177.92C100.52 176.54 100.77 175.24 101.26 174.05C101.76 172.85 102.5 171.76 103.48 170.78C104.46 169.8 105.55 169.06 106.74 168.56C107.94 168.07 109.23 167.82 110.62 167.82C112.01 167.82 113.3 168.07 114.5 168.56C115.7 169.06 116.79 169.8 117.76 170.78C118.74 171.76 119.48 172.85 119.98 174.05C120.48 175.24 120.72 176.54 120.72 177.92ZM118.11 177.92C118.11 176.89 117.93 175.93 117.57 175.06C117.21 174.18 116.66 173.38 115.92 172.65C115.19 171.91 114.38 171.37 113.5 171C112.62 170.64 111.66 170.46 110.62 170.46C109.58 170.46 108.62 170.64 107.74 171C106.86 171.37 106.05 171.91 105.32 172.65C104.58 173.38 104.03 174.18 103.67 175.06C103.31 175.93 103.13 176.89 103.13 177.92C103.13 178.96 103.31 179.92 103.67 180.79C104.03 181.66 104.58 182.47 105.32 183.2C106.05 183.93 106.86 184.48 107.74 184.84C108.62 185.21 109.58 185.39 110.62 185.39C111.66 185.39 112.62 185.21 113.5 184.84C114.38 184.48 115.19 183.93 115.92 183.2C116.66 182.47 117.21 181.66 117.57 180.79C117.93 179.92 118.11 178.96 118.11 177.92ZM141.01 186.73C141.01 187.6 140.56 188.03 139.67 188.03C139.43 188.03 139.21 187.96 139 187.84C138.81 187.72 138.65 187.56 138.54 187.35L130.92 172.07L123.27 187.34C123.16 187.55 123 187.72 122.8 187.84C122.6 187.96 122.37 188.03 122.13 188.03C121.75 188.03 121.44 187.92 121.2 187.69C120.93 187.45 120.8 187.13 120.8 186.73C120.8 186.56 121.18 185.68 121.94 184.12C122.61 182.73 123.62 180.7 124.95 178.02C126.21 175.49 127.28 173.35 128.16 171.6C128.97 170.01 129.48 169.01 129.71 168.6C129.83 168.38 129.98 168.2 130.14 168.08C130.37 167.9 130.62 167.82 130.89 167.82C131.16 167.82 131.41 167.9 131.63 168.06L131.64 168.06C131.82 168.19 131.97 168.36 132.09 168.58L132.1 168.59C132.34 169.03 132.85 170.03 133.64 171.59L136.85 178.01C138.26 180.86 139.27 182.9 139.89 184.17C140.63 185.7 141.01 186.55 141.01 186.73ZM161.29 177.92C161.29 179.31 161.04 180.6 160.55 181.8C160.05 183 159.31 184.09 158.33 185.07C157.35 186.05 156.26 186.78 155.06 187.28C153.87 187.78 152.57 188.03 151.19 188.03C149.8 188.03 148.51 187.78 147.31 187.28C146.11 186.78 145.02 186.05 144.04 185.07C143.07 184.09 142.33 183 141.83 181.8C141.33 180.6 141.08 179.31 141.08 177.92C141.08 176.54 141.33 175.24 141.83 174.05C142.32 172.85 143.06 171.77 144.04 170.78C145.02 169.8 146.11 169.06 147.31 168.57C148.51 168.07 149.8 167.82 151.19 167.82C152.57 167.82 153.87 168.07 155.06 168.56C156.26 169.06 157.35 169.8 158.33 170.78C159.31 171.76 160.05 172.85 160.55 174.05C161.04 175.24 161.29 176.54 161.29 177.92ZM158.68 177.92C158.68 176.89 158.5 175.93 158.14 175.06C157.77 174.18 157.22 173.38 156.49 172.65C155.75 171.91 154.95 171.37 154.07 171C153.19 170.64 152.23 170.46 151.19 170.46C150.14 170.46 149.18 170.64 148.31 171C147.43 171.37 146.62 171.91 145.88 172.65C145.15 173.38 144.6 174.18 144.24 175.06C143.87 175.93 143.69 176.89 143.69 177.92C143.69 178.96 143.87 179.92 144.24 180.79C144.6 181.66 145.15 182.47 145.88 183.2C146.62 183.93 147.43 184.48 148.31 184.84C149.18 185.21 150.14 185.39 151.19 185.39C152.23 185.39 153.19 185.21 154.07 184.84C154.95 184.48 155.75 183.93 156.49 183.2C157.22 182.47 157.77 181.66 158.14 180.79C158.5 179.92 158.68 178.96 158.68 177.92ZM175.05 169.14C175.05 169.52 174.93 169.84 174.69 170.08C174.45 170.33 174.13 170.46 173.74 170.46L165.27 170.46L165.27 186.72C165.27 187.11 165.15 187.42 164.91 187.66C164.67 187.91 164.35 188.03 163.97 188.03C163.59 188.03 163.27 187.91 163.03 187.67C162.79 187.42 162.67 187.11 162.67 186.72L162.67 169.13C162.67 168.25 163.1 167.82 163.97 167.82L173.74 167.82C174.13 167.82 174.45 167.95 174.69 168.2C174.93 168.44 175.05 168.76 175.05 169.14ZM192.08 169.13L192.08 186.72C192.08 187.11 191.95 187.42 191.71 187.66C191.47 187.91 191.15 188.03 190.77 188.03C190.39 188.03 190.07 187.91 189.83 187.66C189.59 187.42 189.47 187.11 189.47 186.72L189.47 172.94L178.15 187.49C178.02 187.64 177.88 187.77 177.73 187.85C177.52 187.97 177.31 188.03 177.09 188.03C176.71 188.03 176.4 187.91 176.15 187.67C175.9 187.43 175.78 187.11 175.78 186.72L175.78 169.13C175.78 168.25 176.21 167.82 177.08 167.82C177.95 167.82 178.39 168.25 178.39 169.13L178.39 182.94L189.69 168.4C189.82 168.24 189.96 168.11 190.11 168.01C190.32 167.88 190.54 167.82 190.77 167.82C191.15 167.82 191.47 167.94 191.71 168.18C191.95 168.43 192.08 168.74 192.08 169.13ZM211.06 169.13L211.06 186.72C211.06 187.11 210.94 187.42 210.7 187.66C210.46 187.91 210.14 188.03 209.76 188.03C209.37 188.03 209.05 187.91 208.81 187.67C208.57 187.42 208.45 187.11 208.45 186.72L208.45 172.94L197.14 187.49C197.01 187.64 196.86 187.77 196.71 187.86C196.51 187.97 196.3 188.03 196.08 188.03C195.7 188.03 195.39 187.91 195.14 187.67C194.89 187.43 194.76 187.11 194.76 186.72L194.76 169.13C194.76 168.74 194.88 168.43 195.12 168.19C195.37 167.94 195.68 167.82 196.07 167.82C196.45 167.82 196.77 167.94 197.01 168.18C197.25 168.42 197.37 168.74 197.37 169.13L197.37 182.94L208.68 168.4C208.81 168.24 208.95 168.11 209.1 168.01C209.3 167.88 209.52 167.82 209.75 167.82C210.14 167.82 210.45 167.94 210.69 168.18C210.94 168.42 211.06 168.74 211.06 169.13ZM166.6 82.31L167.03 82.36M166.95 82.67L166.47 82.83M166.82 83.19L166.33 83.35M166.68 83.71L166.19 83.86M141.45 114.89L141.72 114.63M133.08 34.51L132.24 33.98" />
</svg>